<svg width="45" height="45" viewBox="0 0 45 45" fill="none" xmlns="http://www.w3.org/2000/svg">
<path d="M22.5 0C18.0499 0 13.6998 1.3196 9.99968 3.79193C6.29957 6.26426 3.41569 9.77828 1.71272 13.8896C0.00974894 18.001 -0.435826 22.525 0.432341 26.8895C1.30051 31.2541 3.44343 35.2632 6.59011 38.4099C9.73679 41.5566 13.7459 43.6995 18.1105 44.5677C22.475 45.4358 26.999 44.9903 31.1104 43.2873C35.2217 41.5843 38.7357 38.7004 41.2081 35.0003C43.6804 31.3002 45 26.9501 45 22.5C45 16.5326 42.6295 10.8097 38.4099 6.5901C34.1903 2.37053 28.4674 0 22.5 0ZM22.5 38.5714C19.3214 38.5714 16.2141 37.6288 13.5712 35.8629C10.9283 34.0969 8.86835 31.5869 7.65195 28.6503C6.43554 25.7136 6.11727 22.4822 6.73739 19.3646C7.35751 16.2471 8.88816 13.3834 11.1358 11.1358C13.3834 8.88815 16.2471 7.3575 19.3646 6.73738C22.4822 6.11726 25.7136 6.43553 28.6503 7.65193C31.5869 8.86834 34.097 10.9283 35.8629 13.5712C37.6289 16.2141 38.5714 19.3214 38.5714 22.5C38.5714 26.7624 36.8782 30.8502 33.8642 33.8642C30.8502 36.8782 26.7624 38.5714 22.5 38.5714Z" fill="black"/>
</svg>
