<svg width="45" height="45" viewBox="0 0 45 45" fill="none" xmlns="http://www.w3.org/2000/svg">
<path d="M43.9531 1.04687C43.2826 0.376558 42.3733 0 41.4252 0C40.4771 0 39.5679 0.376558 38.8974 1.04687L22.5 17.4442L6.10265 1.04687C5.43214 0.376558 4.52286 0 3.57476 0C2.62666 0 1.71737 0.376558 1.04687 1.04687C0.376558 1.71737 0 2.62666 0 3.57476C0 4.52286 0.376558 5.43214 1.04687 6.10265L17.4442 22.5L1.04687 38.8974C0.376558 39.5679 0 40.4771 0 41.4252C0 42.3733 0.376558 43.2826 1.04687 43.9531C1.71737 44.6234 2.62666 45 3.57476 45C4.52286 45 5.43214 44.6234 6.10265 43.9531L22.5 27.5558L38.8974 43.9531C39.5679 44.6234 40.4771 45 41.4252 45C42.3733 45 43.2826 44.6234 43.9531 43.9531C44.6234 43.2826 45 42.3733 45 41.4252C45 40.4771 44.6234 39.5679 43.9531 38.8974L27.5558 22.5L43.9531 6.10265C44.6234 5.43214 45 4.52286 45 3.57476C45 2.62666 44.6234 1.71737 43.9531 1.04687Z" fill="black"/>
</svg>
